<?xml version="1.0" encoding="UTF-8" standalone="no"?>
<!-- Created with Inkscape (http://www.inkscape.org/) -->

<svg
   xmlns:svg="http://www.w3.org/2000/svg"
   xmlns="http://www.w3.org/2000/svg"
   version="1.1"
   width="700.52606"
   height="157.47568"
   id="svg6859">
  <defs
     id="defs6861" />
  <g
     transform="translate(21.69159,-442.19577)"
     id="layer1">
    <g
       transform="translate(91.094195,19.324602)"
       id="g6534">
      <rect
         width="694.54279"
         height="151.49243"
         x="-109.79416"
         y="425.86279"
         id="rect4465"
         style="opacity:0.87999998;fill:none;stroke:#696969;stroke-width:5.98325205;stroke-miterlimit:4;stroke-opacity:1;stroke-dasharray:none" />
      <g
         transform="translate(-162.52995,-196.03728)"
         id="g4516">
        <g
           transform="translate(0.73146356,7.0934018)"
           id="g4450">
          <path
             d="m 99.095431,691.37619 0,35.51606 -12.470083,0 0,12.15439 25.887262,0 0,-12.31224 25.09802,0 0,12.31224 25.41372,0 0,-12.15439 -13.25786,0 0,-35.51606"
             id="path3917"
             style="fill:none;stroke:#000000;stroke-width:1.546;stroke-linecap:butt;stroke-linejoin:miter;stroke-miterlimit:4;stroke-opacity:1;stroke-dasharray:none" />
          <path
             d="m 98.623355,698.63725 -10.261667,0 0,-23.67738 23.363632,0 0.15296,-26.36081 26.5216,0 -0.47406,26.36081 23.36363,0 3e-5,23.67738 -11.36514,0"
             id="path3919"
             style="fill:none;stroke:#000000;stroke-width:1.546;stroke-linecap:butt;stroke-linejoin:miter;stroke-miterlimit:4;stroke-opacity:1;stroke-dasharray:none" />
          <path
             d="m 115.57718,655.49594 6.25051,-3.24123"
             id="path3927"
             style="fill:none;stroke:#000000;stroke-width:0.94562668;stroke-linecap:butt;stroke-linejoin:miter;stroke-miterlimit:4;stroke-opacity:1;stroke-dasharray:none" />
          <path
             d="m 118.93687,670.7355 c 4.05539,-4.84326 8.18063,-4.90441 12.16617,0"
             id="path3929"
             style="fill:none;stroke:#000000;stroke-width:0.94562668;stroke-linecap:butt;stroke-linejoin:miter;stroke-miterlimit:4;stroke-opacity:1;stroke-dasharray:none" />
          <path
             d="m 122.60289,662.09516 0,1.77581 0.78925,0.78924 3.27537,0 0.76951,-0.76951 0,-1.835"
             id="path3933"
             style="fill:none;stroke:#000000;stroke-width:0.94562668;stroke-linecap:butt;stroke-linejoin:miter;stroke-miterlimit:4;stroke-opacity:1;stroke-dasharray:none" />
          <path
             d="m 117.12199,657.75431 3.66999,0 0.80898,0.80898 0,2.26908 -0.83858,0.83857 -3.64039,0 -0.59918,-1.0378 0,-2.24743 0.59918,-0.6314 z"
             id="path3937"
             style="fill:none;stroke:#000000;stroke-width:0.94562668;stroke-linecap:butt;stroke-linejoin:miter;stroke-miterlimit:4;stroke-opacity:1;stroke-dasharray:none" />
          <path
             d="m 119.06188,659.68774 0,1.65164"
             id="path3939"
             style="fill:none;stroke:#000000;stroke-width:1.546;stroke-linecap:butt;stroke-linejoin:miter;stroke-miterlimit:4;stroke-opacity:1;stroke-dasharray:none" />
          <path
             d="m 111.47036,661.59206 -5.6057,0 1e-5,-19.53284 38.56652,0 -2e-5,19.42122 -6.55132,0"
             id="path3949"
             style="fill:none;stroke:#000000;stroke-width:1.546;stroke-linecap:butt;stroke-linejoin:miter;stroke-miterlimit:4;stroke-opacity:1;stroke-dasharray:none" />
          <path
             d="m 129.11606,657.75431 3.66998,0 0.80898,0.80898 0,2.26908 -0.83858,0.83857 -3.64039,0 -0.59918,-1.0378 0,-2.24743 0.59918,-0.6314 z"
             id="path3937-9"
             style="fill:none;stroke:#000000;stroke-width:0.94562668;stroke-linecap:butt;stroke-linejoin:miter;stroke-miterlimit:4;stroke-opacity:1;stroke-dasharray:none" />
          <path
             d="m 131.05595,659.68774 0,1.65164"
             id="path3939-3"
             style="fill:none;stroke:#000000;stroke-width:1.546;stroke-linecap:butt;stroke-linejoin:miter;stroke-miterlimit:4;stroke-opacity:1;stroke-dasharray:none" />
          <path
             d="m 134.05876,655.49594 -6.25051,-3.24123"
             id="path3987"
             style="fill:none;stroke:#000000;stroke-width:0.94562668;stroke-linecap:butt;stroke-linejoin:miter;stroke-miterlimit:4;stroke-opacity:1;stroke-dasharray:none" />
        </g>
        <rect
           width="123.24546"
           height="131.71857"
           x="63.933582"
           y="631.78705"
           id="rect4463"
           style="opacity:0.87999998;fill:none;stroke:#b6b6b6;stroke-width:2.64599991;stroke-miterlimit:4;stroke-opacity:1;stroke-dasharray:none" />
      </g>
      <g
         transform="translate(-158.56371,-214.90923)"
         id="g4531">
        <g
           transform="translate(-3.3503207,22.56005)"
           id="g4437">
          <path
             d="m 236.43638,694.78149 0,35.51606 -12.47008,0 0,12.15439 25.88726,0 0,-12.31224 25.09802,0 0,12.31224 25.41372,0 0,-12.15439 -13.25786,0 0,-35.51606"
             id="path4014"
             style="fill:none;stroke:#000000;stroke-width:1.546;stroke-linecap:butt;stroke-linejoin:miter;stroke-miterlimit:4;stroke-opacity:1;stroke-dasharray:none" />
          <path
             d="m 235.96431,702.04255 -10.26167,0 0,-23.67738 23.36363,0 0.15296,-26.36081 26.5216,0 -0.47406,26.36081 23.36363,0 3e-5,23.67738 -11.36514,0"
             id="path4016"
             style="fill:none;stroke:#000000;stroke-width:1.546;stroke-linecap:butt;stroke-linejoin:miter;stroke-miterlimit:4;stroke-opacity:1;stroke-dasharray:none" />
          <path
             d="m 252.91813,658.90124 6.25051,-1.24123"
             id="path4024"
             style="fill:none;stroke:#000000;stroke-width:0.94562668;stroke-linecap:butt;stroke-linejoin:miter;stroke-miterlimit:4;stroke-opacity:1;stroke-dasharray:none" />
          <path
             d="m 256.27782,674.1408 c 3.96891,-2.7892 8.13739,-2.89359 12.16617,0"
             id="path4026"
             style="fill:none;stroke:#000000;stroke-width:0.94562668;stroke-linecap:butt;stroke-linejoin:miter;stroke-miterlimit:4;stroke-opacity:1;stroke-dasharray:none" />
          <path
             d="m 259.94384,665.50046 0,1.77581 0.78925,0.78924 3.27537,0 0.76951,-0.76951 0,-1.835"
             id="path4028"
             style="fill:none;stroke:#000000;stroke-width:0.94562668;stroke-linecap:butt;stroke-linejoin:miter;stroke-miterlimit:4;stroke-opacity:1;stroke-dasharray:none" />
          <path
             d="m 254.46294,661.15961 3.66999,0 0.80898,0.80898 0,2.26908 -0.83858,0.83857 -3.64039,0 -0.59918,-1.0378 0,-2.24743 0.59918,-0.6314 z"
             id="path4032"
             style="fill:none;stroke:#000000;stroke-width:0.94562668;stroke-linecap:butt;stroke-linejoin:miter;stroke-miterlimit:4;stroke-opacity:1;stroke-dasharray:none" />
          <path
             d="m 256.34072,662.52282 0,1.47317"
             id="path4034"
             style="fill:none;stroke:#000000;stroke-width:1.46500778;stroke-linecap:butt;stroke-linejoin:miter;stroke-miterlimit:4;stroke-opacity:1;stroke-dasharray:none" />
          <path
             d="m 248.81131,664.99736 -5.6057,0 1e-5,-19.53284 38.56652,0 -2e-5,19.42122 -6.55132,0"
             id="path4038"
             style="fill:none;stroke:#000000;stroke-width:1.546;stroke-linecap:butt;stroke-linejoin:miter;stroke-miterlimit:4;stroke-opacity:1;stroke-dasharray:none" />
          <path
             d="m 266.45701,661.15961 3.66998,0 0.80898,0.80898 0,2.26908 -0.83857,0.83857 -3.6404,0 -0.59918,-1.0378 0,-2.24743 0.59918,-0.6314 z"
             id="path4050"
             style="fill:none;stroke:#000000;stroke-width:0.94562668;stroke-linecap:butt;stroke-linejoin:miter;stroke-miterlimit:4;stroke-opacity:1;stroke-dasharray:none" />
          <path
             d="m 268.41577,662.52282 0,1.47317"
             id="path4052"
             style="fill:none;stroke:#000000;stroke-width:1.46500778;stroke-linecap:butt;stroke-linejoin:miter;stroke-miterlimit:4;stroke-opacity:1;stroke-dasharray:none" />
          <path
             d="m 271.39971,658.90124 -6.25051,-1.24123"
             id="path4054"
             style="fill:none;stroke:#000000;stroke-width:0.94562668;stroke-linecap:butt;stroke-linejoin:miter;stroke-miterlimit:4;stroke-opacity:1;stroke-dasharray:none" />
        </g>
        <rect
           width="123.24546"
           height="131.71857"
           x="197.19275"
           y="650.659"
           id="rect4463-7"
           style="opacity:0.87999998;fill:none;stroke:#b6b6b6;stroke-width:2.64599991;stroke-miterlimit:4;stroke-opacity:1;stroke-dasharray:none" />
      </g>
      <g
         transform="translate(-165.38139,-194.88189)"
         id="g4546">
        <g
           transform="translate(3.9983456,0.77566628)"
           id="g4424">
          <path
             d="m 373.13084,696.53853 0,35.51606 -12.47009,0 0,12.15439 25.88727,0 0,-12.31224 25.09802,0 0,12.31224 25.41372,0 0,-12.15439 -13.25787,0 0,-35.51606"
             id="path4014-0-0"
             style="fill:none;stroke:#000000;stroke-width:1.546;stroke-linecap:butt;stroke-linejoin:miter;stroke-miterlimit:4;stroke-opacity:1;stroke-dasharray:none" />
          <path
             d="m 372.65876,703.79959 -10.26166,0 0,-23.67738 23.36362,0 0.15297,-26.36081 26.5216,0 -0.47406,26.36081 23.36363,0 3e-5,23.67738 -11.36515,0"
             id="path4016-2-3"
             style="fill:none;stroke:#000000;stroke-width:1.546;stroke-linecap:butt;stroke-linejoin:miter;stroke-miterlimit:4;stroke-opacity:1;stroke-dasharray:none" />
          <path
             d="m 389.61259,660.65828 6.2505,-0.0181"
             id="path4024-9-5"
             style="fill:none;stroke:#000000;stroke-width:0.94562668;stroke-linecap:butt;stroke-linejoin:miter;stroke-miterlimit:4;stroke-opacity:1;stroke-dasharray:none" />
          <path
             d="m 392.97228,673.76661 12.16617,0"
             id="path4026-0-7"
             style="fill:none;stroke:#000000;stroke-width:0.94562668;stroke-linecap:butt;stroke-linejoin:miter;stroke-miterlimit:4;stroke-opacity:1;stroke-dasharray:none" />
          <path
             d="m 396.6383,667.2575 0,1.77581 0.78924,0.78924 3.27538,0 0.76951,-0.76951 0,-1.835"
             id="path4028-5-6"
             style="fill:none;stroke:#000000;stroke-width:0.94562668;stroke-linecap:butt;stroke-linejoin:miter;stroke-miterlimit:4;stroke-opacity:1;stroke-dasharray:none" />
          <path
             d="m 391.1574,662.91665 3.66999,0 0.80898,0.80898 0,2.26908 -0.83858,0.83857 -3.64039,0 -0.59919,-1.0378 0,-2.24743 0.59919,-0.6314 z"
             id="path4032-2-2"
             style="fill:none;stroke:#000000;stroke-width:0.94562668;stroke-linecap:butt;stroke-linejoin:miter;stroke-miterlimit:4;stroke-opacity:1;stroke-dasharray:none" />
          <path
             d="m 393.03517,664.27986 0,1.47317"
             id="path4034-2-7"
             style="fill:none;stroke:#000000;stroke-width:1.46500778;stroke-linecap:butt;stroke-linejoin:miter;stroke-miterlimit:4;stroke-opacity:1;stroke-dasharray:none" />
          <path
             d="m 385.50577,666.7544 -5.6057,0 0,-19.53284 38.56652,0 -10e-6,19.42122 -6.55133,0"
             id="path4038-3-3"
             style="fill:none;stroke:#000000;stroke-width:1.546;stroke-linecap:butt;stroke-linejoin:miter;stroke-miterlimit:4;stroke-opacity:1;stroke-dasharray:none" />
          <path
             d="m 403.15146,662.91665 3.66999,0 0.80898,0.80898 0,2.26908 -0.83858,0.83857 -3.64039,0 -0.59918,-1.0378 0,-2.24743 0.59918,-0.6314 z"
             id="path4050-3-7"
             style="fill:none;stroke:#000000;stroke-width:0.94562668;stroke-linecap:butt;stroke-linejoin:miter;stroke-miterlimit:4;stroke-opacity:1;stroke-dasharray:none" />
          <path
             d="m 405.11023,664.27986 0,1.47317"
             id="path4052-9-2"
             style="fill:none;stroke:#000000;stroke-width:1.46500778;stroke-linecap:butt;stroke-linejoin:miter;stroke-miterlimit:4;stroke-opacity:1;stroke-dasharray:none" />
          <path
             d="m 408.09417,660.65828 -6.25051,-0.0181"
             id="path4054-9-3"
             style="fill:none;stroke:#000000;stroke-width:0.94562668;stroke-linecap:butt;stroke-linejoin:miter;stroke-miterlimit:4;stroke-opacity:1;stroke-dasharray:none" />
        </g>
        <rect
           width="123.24546"
           height="131.71857"
           x="341.23587"
           y="630.63165"
           id="rect4463-8"
           style="opacity:0.87999998;fill:none;stroke:#b6b6b6;stroke-width:2.64599991;stroke-miterlimit:4;stroke-opacity:1;stroke-dasharray:none" />
      </g>
      <g
         transform="translate(-160.64482,-194.11156)"
         id="g4561">
        <g
           transform="translate(-3.0139328,1.0677916)"
           id="g4411">
          <path
             d="m 512.63201,695.47608 0,35.51606 -12.47009,0 0,12.15439 25.88727,0 0,-12.31224 25.09802,0 0,12.31224 25.41372,0 0,-12.15439 -13.25787,0 0,-35.51606"
             id="path4014-0"
             style="fill:none;stroke:#000000;stroke-width:1.546;stroke-linecap:butt;stroke-linejoin:miter;stroke-miterlimit:4;stroke-opacity:1;stroke-dasharray:none" />
          <path
             d="m 512.15993,702.73714 -10.26166,0 0,-23.67738 23.36362,0 0.15297,-26.36081 26.5216,0 -0.47406,26.36081 23.36363,0 3e-5,23.67738 -11.36515,0"
             id="path4016-2"
             style="fill:none;stroke:#000000;stroke-width:1.546;stroke-linecap:butt;stroke-linejoin:miter;stroke-miterlimit:4;stroke-opacity:1;stroke-dasharray:none" />
          <path
             d="m 529.11376,659.59583 6.2505,-0.0181"
             id="path4024-9"
             style="fill:none;stroke:#000000;stroke-width:0.94562668;stroke-linecap:butt;stroke-linejoin:miter;stroke-miterlimit:4;stroke-opacity:1;stroke-dasharray:none" />
          <path
             d="m 532.47345,670.70416 c 3.9689,2.7892 8.13738,2.89359 12.16617,0"
             id="path4026-0"
             style="fill:none;stroke:#000000;stroke-width:0.94562668;stroke-linecap:butt;stroke-linejoin:miter;stroke-miterlimit:4;stroke-opacity:1;stroke-dasharray:none" />
          <path
             d="m 536.13947,666.19505 0,1.77581 0.78924,0.78924 3.27538,0 0.76951,-0.76951 0,-1.835"
             id="path4028-5"
             style="fill:none;stroke:#000000;stroke-width:0.94562668;stroke-linecap:butt;stroke-linejoin:miter;stroke-miterlimit:4;stroke-opacity:1;stroke-dasharray:none" />
          <path
             d="m 530.65857,661.8542 3.66999,0 0.80898,0.80898 0,2.26908 -0.83858,0.83857 -3.64039,0 -0.59919,-1.0378 0,-2.24743 0.59919,-0.6314 z"
             id="path4032-2"
             style="fill:none;stroke:#000000;stroke-width:0.94562668;stroke-linecap:butt;stroke-linejoin:miter;stroke-miterlimit:4;stroke-opacity:1;stroke-dasharray:none" />
          <path
             d="m 532.53634,663.21741 0,1.47317"
             id="path4034-2"
             style="fill:none;stroke:#000000;stroke-width:1.46500778;stroke-linecap:butt;stroke-linejoin:miter;stroke-miterlimit:4;stroke-opacity:1;stroke-dasharray:none" />
          <path
             d="m 525.00694,665.69195 -5.6057,0 0,-19.53284 38.56652,0 -10e-6,19.42122 -6.55133,0"
             id="path4038-3"
             style="fill:none;stroke:#000000;stroke-width:1.546;stroke-linecap:butt;stroke-linejoin:miter;stroke-miterlimit:4;stroke-opacity:1;stroke-dasharray:none" />
          <path
             d="m 542.65263,661.8542 3.66999,0 0.80898,0.80898 0,2.26908 -0.83858,0.83857 -3.64039,0 -0.59918,-1.0378 0,-2.24743 0.59918,-0.6314 z"
             id="path4050-3"
             style="fill:none;stroke:#000000;stroke-width:0.94562668;stroke-linecap:butt;stroke-linejoin:miter;stroke-miterlimit:4;stroke-opacity:1;stroke-dasharray:none" />
          <path
             d="m 544.6114,663.21741 0,1.47317"
             id="path4052-9"
             style="fill:none;stroke:#000000;stroke-width:1.46500778;stroke-linecap:butt;stroke-linejoin:miter;stroke-miterlimit:4;stroke-opacity:1;stroke-dasharray:none" />
          <path
             d="m 547.59534,659.59583 -6.25051,-0.0181"
             id="path4054-9"
             style="fill:none;stroke:#000000;stroke-width:0.94562668;stroke-linecap:butt;stroke-linejoin:miter;stroke-miterlimit:4;stroke-opacity:1;stroke-dasharray:none" />
        </g>
        <rect
           width="123.24546"
           height="131.71857"
           x="473.72476"
           y="629.86133"
           id="rect4463-81"
           style="opacity:0.87999998;fill:none;stroke:#b6b6b6;stroke-width:2.64599991;stroke-miterlimit:4;stroke-opacity:1;stroke-dasharray:none" />
      </g>
      <g
         transform="translate(-160.52995,-187.94933)"
         id="g4576">
        <g
           transform="translate(-9.1845976,-3.1943299)"
           id="g4396">
          <path
             d="m 655.91324,693.57597 0,35.51606 -12.47009,0 0,12.15439 25.88727,0 0,-12.31224 25.09802,0 0,12.31224 25.41372,0 0,-12.15439 -13.25787,0 0,-35.51606"
             id="path4014-0-5"
             style="fill:none;stroke:#000000;stroke-width:1.546;stroke-linecap:butt;stroke-linejoin:miter;stroke-miterlimit:4;stroke-opacity:1;stroke-dasharray:none" />
          <path
             d="m 655.44116,700.83703 -10.26166,0 0,-23.67738 23.36362,0 0.15297,-26.36081 26.5216,0 -0.47406,26.36081 23.36363,0 3e-5,23.67738 -11.36515,0"
             id="path4016-2-8"
             style="fill:none;stroke:#000000;stroke-width:1.546;stroke-linecap:butt;stroke-linejoin:miter;stroke-miterlimit:4;stroke-opacity:1;stroke-dasharray:none" />
          <path
             d="m 672.39499,655.69572 6.2505,-0.0181"
             id="path4024-9-1"
             style="fill:none;stroke:#000000;stroke-width:0.94562668;stroke-linecap:butt;stroke-linejoin:miter;stroke-miterlimit:4;stroke-opacity:1;stroke-dasharray:none" />
          <path
             d="m 675.20428,669.23399 c 3.84659,4.86848 9.72743,4.97287 13.26697,-0.12231"
             id="path4026-0-3"
             style="fill:none;stroke:#000000;stroke-width:0.94562668;stroke-linecap:butt;stroke-linejoin:miter;stroke-miterlimit:4;stroke-opacity:1;stroke-dasharray:none" />
          <path
             d="m 679.4207,664.29494 0,1.77581 0.78924,0.78924 3.27538,0 0.76951,-0.76951 0,-1.835"
             id="path4028-5-8"
             style="fill:none;stroke:#000000;stroke-width:0.94562668;stroke-linecap:butt;stroke-linejoin:miter;stroke-miterlimit:4;stroke-opacity:1;stroke-dasharray:none" />
          <path
             d="m 673.9398,659.95409 3.66999,0 0.80898,0.80898 0,2.26908 -0.83858,0.83857 -3.64039,0 -0.59919,-1.0378 0,-2.24743 0.59919,-0.6314 z"
             id="path4032-2-4"
             style="fill:none;stroke:#000000;stroke-width:0.94562668;stroke-linecap:butt;stroke-linejoin:miter;stroke-miterlimit:4;stroke-opacity:1;stroke-dasharray:none" />
          <path
             d="m 675.81757,660.46112 0,1.47317"
             id="path4034-2-8"
             style="fill:none;stroke:#000000;stroke-width:1.46500778;stroke-linecap:butt;stroke-linejoin:miter;stroke-miterlimit:4;stroke-opacity:1;stroke-dasharray:none" />
          <path
             d="m 668.28817,663.79184 -5.6057,0 0,-19.53284 38.56652,0 -1e-5,19.42122 -6.55133,0"
             id="path4038-3-6"
             style="fill:none;stroke:#000000;stroke-width:1.546;stroke-linecap:butt;stroke-linejoin:miter;stroke-miterlimit:4;stroke-opacity:1;stroke-dasharray:none" />
          <path
             d="m 685.93386,659.95409 3.66999,0 0.80898,0.80898 0,2.26908 -0.83858,0.83857 -3.64039,0 -0.59918,-1.0378 0,-2.24743 0.59918,-0.6314 z"
             id="path4050-3-9"
             style="fill:none;stroke:#000000;stroke-width:0.94562668;stroke-linecap:butt;stroke-linejoin:miter;stroke-miterlimit:4;stroke-opacity:1;stroke-dasharray:none" />
          <path
             d="m 687.89263,660.46112 0,1.47317"
             id="path4052-9-4"
             style="fill:none;stroke:#000000;stroke-width:1.46500778;stroke-linecap:butt;stroke-linejoin:miter;stroke-miterlimit:4;stroke-opacity:1;stroke-dasharray:none" />
          <path
             d="m 690.87657,655.69572 -6.25051,-0.0181"
             id="path4054-9-1"
             style="fill:none;stroke:#000000;stroke-width:0.94562668;stroke-linecap:butt;stroke-linejoin:miter;stroke-miterlimit:4;stroke-opacity:1;stroke-dasharray:none" />
          <path
             d="m 673.6875,667.18977 0,0.85618"
             id="path4309"
             style="fill:none;stroke:#000000;stroke-width:1px;stroke-linecap:butt;stroke-linejoin:miter;stroke-opacity:1" />
          <path
             d="m 689.99785,667.18977 0,0.85618"
             id="path4309-3"
             style="fill:none;stroke:#000000;stroke-width:1px;stroke-linecap:butt;stroke-linejoin:miter;stroke-opacity:1" />
        </g>
        <rect
           width="123.24546"
           height="131.71857"
           x="610.83533"
           y="623.6991"
           id="rect4463-3"
           style="opacity:0.87999998;fill:none;stroke:#b6b6b6;stroke-width:2.64599991;stroke-miterlimit:4;stroke-opacity:1;stroke-dasharray:none" />
      </g>
    </g>
  </g>
</svg>
